<svg width="393" height="267" viewBox="0 0 393 267" fill="none" xmlns="http://www.w3.org/2000/svg">
<path d="M109.353 72.3654C110.865 82.475 115.948 98.061 115.948 98.061L149.121 148.409L134.954 205.179C134.954 205.179 153.589 186.129 165.415 173.313C169.127 169.29 172.848 166.338 174.942 162.667C180.805 152.389 181.472 142.489 179.339 129.63C178.041 121.801 175.188 118.091 172.744 110.542C169.948 101.907 168.456 97.0895 166.881 88.1499C165.782 81.9095 165.748 76.7704 163.217 69.7958C162.163 66.8938 159.299 64.5948 156.621 66.125C154.179 67.5207 154.16 69.9283 154.423 72.7325C155.522 84.479 158.087 104.301 158.087 104.301C158.087 104.301 152.591 73.8337 147.461 55.4797C146.52 52.1123 144.34 50.2612 141.598 50.7076C139.874 50.9883 139.201 51.6604 138.667 52.9101C137.803 54.9296 137.698 57.9053 137.934 60.6188C139.399 77.5045 144.896 103.934 144.896 103.934C144.896 103.934 140.978 85.4424 137.934 74.2008C135.433 64.9642 134.636 60.9858 130.972 52.176C129.75 49.2393 128.346 47.771 125.842 47.771C124.743 47.771 122.91 48.5052 122.544 51.0747C122.117 54.0713 122.623 57.3151 122.91 59.1505C125.842 77.8716 133.17 107.238 133.17 107.238C133.17 107.238 126.845 89.6987 122.91 78.9728C120.224 71.6496 119.246 67.2262 116.315 60.9859C115.332 58.8944 113.383 57.3447 111.185 58.0492C109.353 58.6365 108.62 60.0598 108.62 62.8213C108.62 66.125 108.756 68.373 109.353 72.3654Z" fill="#A36F52"/>
<path d="M114.849 161.933C110.818 166.705 104.223 173.68 104.223 173.68C112.966 186.881 120.248 193.625 134.954 205.178L161.751 158.996C161.751 158.996 166.148 150.554 161.385 138.807C156.79 127.477 144.896 124.124 143.064 121.187C139.044 114.744 136.834 111.643 132.071 105.77C129.252 102.294 126.941 99.8966 123.277 98.4282C119.955 97.0972 116.631 97.5422 115.216 98.4282C113.8 99.3142 113.056 100.46 113.383 102.099C113.75 103.934 116.04 106.271 117.78 109.441C120.727 114.806 122.669 118.03 123.277 124.124C124.01 131.465 124.01 137.339 122.544 147.617C122.021 151.288 118.737 157.33 114.849 161.933Z" fill="#A36F52"/>
<path d="M2.45215 265.817L100.925 167.807C103.742 167.493 105.07 167.91 108.118 168.865L108.254 168.908L103.944 173.313C110.499 183.561 123.749 197.618 135.62 205.616L139.766 201.211C140.821 204.536 141.211 206.195 139.766 208.185L97.261 265.817H2.45215Z" fill="#9DABFC"/>
<path d="M100.925 167.807L2.45215 265.817H97.261L139.766 208.185M100.925 167.807C103.783 167.488 105.109 167.922 108.254 168.908L103.944 173.313M100.925 167.807C101.635 169.447 102.661 171.307 103.944 173.313M139.766 208.185C141.211 206.195 140.821 204.536 139.766 201.211L135.62 205.616M139.766 208.185C138.412 207.425 137.026 206.563 135.62 205.616M103.944 173.313C110.499 183.561 123.749 197.618 135.62 205.616" stroke="#5E68A7" stroke-width="1.46832"/>
<path d="M104.953 173.455C108.971 168.672 110.716 166.6 114.746 161.828C118.634 157.226 121.918 151.183 122.441 147.512C123.907 137.234 123.907 131.361 123.174 124.019C122.566 117.925 120.624 114.701 117.678 109.336C115.937 106.166 113.647 103.83 113.28 101.994C112.953 100.355 113.697 99.2095 115.113 98.3235C116.528 97.4375 119.852 96.9925 123.174 98.3235C126.838 99.7918 129.149 102.189 131.968 105.665C136.731 111.538 138.941 114.64 142.961 121.082C144.793 124.019 156.687 127.372 161.282 138.702C166.045 150.449 161.648 158.892 161.648 158.892" stroke="#7E5640" stroke-width="1.46832"/>
<path d="M17 42L72.0838 54.269" stroke="url(#paint0_linear)" stroke-width="3.6708"/>
<path d="M41.9999 101.99L71.6374 94" stroke="url(#paint1_linear)" stroke-width="3.6708"/>
<path d="M72 2L91.0817 26.0826" stroke="url(#paint2_linear)" stroke-width="3.6708"/>
<path d="M283.551 72.3654C282.04 82.475 276.956 98.061 276.956 98.061L243.784 148.409L257.951 205.179C257.951 205.179 239.315 186.129 227.489 173.313C223.778 169.29 220.056 166.338 217.962 162.667C212.099 152.389 211.432 142.489 213.565 129.63C214.863 121.801 217.716 118.091 220.161 110.542C222.957 101.907 224.449 97.0895 226.023 88.1499C227.123 81.9095 227.156 76.7704 229.688 69.7958C230.741 66.8938 233.606 64.5948 236.283 66.125C238.725 67.5207 238.744 69.9283 238.482 72.7325C237.382 84.479 234.817 104.301 234.817 104.301C234.817 104.301 240.314 73.8337 245.444 55.4797C246.385 52.1123 248.564 50.2612 251.306 50.7076C253.031 50.9883 253.703 51.6604 254.238 52.9101C255.102 54.9296 255.206 57.9053 254.971 60.6188C253.505 77.5045 248.009 103.934 248.009 103.934C248.009 103.934 251.927 85.4424 254.971 74.2008C257.472 64.9642 258.268 60.9858 261.933 52.176C263.154 49.2393 264.558 47.771 267.063 47.771C268.162 47.771 269.994 48.5052 270.36 51.0747C270.788 54.0713 270.281 57.3151 269.994 59.1505C267.063 77.8716 259.734 107.238 259.734 107.238C259.734 107.238 266.06 89.6987 269.994 78.9728C272.68 71.6496 273.658 67.2262 276.589 60.9859C277.572 58.8944 279.522 57.3447 281.719 58.0492C283.551 58.6365 284.284 60.0598 284.284 62.8213C284.284 66.125 284.149 68.373 283.551 72.3654Z" fill="#FFE2C8"/>
<path d="M278.055 161.933C282.086 166.705 288.681 173.68 288.681 173.68C279.938 186.881 272.656 193.625 257.95 205.178L231.153 158.996C231.153 158.996 226.756 150.554 231.52 138.807C236.114 127.477 248.008 124.124 249.841 121.187C253.86 114.744 256.07 111.643 260.833 105.77C263.652 102.294 265.963 99.8966 269.627 98.4282C272.949 97.0972 276.273 97.5422 277.689 98.4282C279.104 99.3142 279.848 100.46 279.521 102.099C279.154 103.934 276.865 106.271 275.124 109.441C272.177 114.806 270.236 118.03 269.627 124.124C268.894 131.465 268.894 137.339 270.36 147.617C270.884 151.288 274.167 157.33 278.055 161.933Z" fill="#FFE2C8"/>
<path d="M390.452 265.817L291.979 167.807C289.163 167.493 287.834 167.91 284.786 168.865L284.651 168.908L288.96 173.313C282.405 183.561 269.155 197.618 257.284 205.616L253.138 201.211C252.084 204.536 251.693 206.195 253.138 208.185L295.643 265.817H390.452Z" fill="#FFBDBD"/>
<path d="M291.979 167.807L390.452 265.817H295.643L253.138 208.185M291.979 167.807C289.121 167.488 287.795 167.922 284.651 168.908L288.96 173.313M291.979 167.807C291.27 169.447 290.243 171.307 288.96 173.313M253.138 208.185C251.693 206.195 252.084 204.536 253.138 201.211L257.284 205.616M253.138 208.185C254.492 207.425 255.878 206.563 257.284 205.616M288.96 173.313C282.405 183.561 269.155 197.618 257.284 205.616" stroke="#CF8F8F" stroke-width="1.46832"/>
<path d="M287.951 173.455C283.933 168.672 282.189 166.6 278.158 161.828C274.27 157.226 270.987 151.183 270.463 147.512C268.997 137.234 268.997 131.361 269.73 124.019C270.339 117.925 272.28 114.701 275.227 109.336C276.968 106.166 279.257 103.83 279.624 101.994C279.951 100.355 279.207 99.2095 277.792 98.3235C276.376 97.4375 273.052 96.9925 269.73 98.3235C266.066 99.7918 263.755 102.189 260.936 105.665C256.173 111.538 253.963 114.64 249.944 121.082C248.111 124.019 236.217 127.372 231.622 138.702C226.859 150.449 231.256 158.892 231.256 158.892" stroke="#D5B599" stroke-width="1.46832"/>
<path d="M380.084 45L325 57.269" stroke="url(#paint3_linear)" stroke-width="3.6708"/>
<path d="M349.637 105.99L320 98" stroke="url(#paint4_linear)" stroke-width="3.6708"/>
<path d="M321.082 2L302 26.0826" stroke="url(#paint5_linear)" stroke-width="3.6708"/>
<ellipse cx="270.816" cy="208.186" rx="5.49632" ry="5.50621" fill="#CF8F8F"/>
<defs>
<linearGradient id="paint0_linear" x1="17" y1="42" x2="72.0931" y2="54.2271" gradientUnits="userSpaceOnUse">
<stop stop-color="#9FFCFA"/>
<stop offset="1" stop-color="#75B7FF"/>
</linearGradient>
<linearGradient id="paint1_linear" x1="41.9999" y1="101.99" x2="71.6446" y2="94.0268" gradientUnits="userSpaceOnUse">
<stop stop-color="#A0FEF9"/>
<stop offset="1" stop-color="#77BAFF"/>
</linearGradient>
<linearGradient id="paint2_linear" x1="72" y1="2" x2="91.1238" y2="26.0491" gradientUnits="userSpaceOnUse">
<stop stop-color="#A0FEF9"/>
<stop offset="1" stop-color="#77BAFF"/>
</linearGradient>
<linearGradient id="paint3_linear" x1="380.084" y1="45" x2="324.991" y2="57.2271" gradientUnits="userSpaceOnUse">
<stop stop-color="#A0FFF9"/>
<stop offset="1" stop-color="#72B3FF"/>
</linearGradient>
<linearGradient id="paint4_linear" x1="349.637" y1="105.99" x2="319.993" y2="98.0268" gradientUnits="userSpaceOnUse">
<stop stop-color="#A0FFF9"/>
<stop offset="1" stop-color="#72B3FF"/>
</linearGradient>
<linearGradient id="paint5_linear" x1="321.082" y1="2" x2="301.958" y2="26.0491" gradientUnits="userSpaceOnUse">
<stop stop-color="#A0FFF9"/>
<stop offset="1" stop-color="#72B3FF"/>
</linearGradient>
</defs>
</svg>
